<svg xmlns="http://www.w3.org/2000/svg" width="32" height="32" viewBox="0 0 32 32" fill="none">
  <rect width="32" height="32" rx="8" fill="#0EA5E9"/>
  <path d="M16 6C10.48 6 6 10.48 6 16s4.48 10 10 10 10-4.48 10-10S21.52 6 16 6zm-1 15h-2v-6h2v6zm4 0h-2v-6h2v6zm0-8H13v-2h6v2z" fill="white" opacity="0.9"/>
  <path d="M16 8a8 8 0 100 16 8 8 0 000-16zm0 14.5a6.5 6.5 0 110-13 6.5 6.5 0 010 13z" fill="white" opacity="0.3"/>
  <circle cx="16" cy="16" r="2" fill="white"/>
  <line x1="16" y1="10" x2="16" y2="14" stroke="white" stroke-width="1.5" stroke-linecap="round"/>
  <line x1="16" y1="16" x2="20" y2="18" stroke="white" stroke-width="1.5" stroke-linecap="round"/>
</svg>
